<?xml version="1.0" standalone="no"?>
<!DOCTYPE svg PUBLIC "-//W3C//DTD SVG 20010904//EN"
 "http://www.w3.org/TR/2001/REC-SVG-20010904/DTD/svg10.dtd">
<svg version="1.0" xmlns="http://www.w3.org/2000/svg"
 width="628.000000pt" height="624.000000pt" viewBox="0 0 628.000000 624.000000"
 preserveAspectRatio="xMidYMid meet">

<g transform="translate(0.000000,624.000000) scale(0.100000,-0.100000)"
fill="#000000" stroke="none">
<path d="M2961 5019 c-370 -42 -731 -192 -1022 -427 -107 -86 -272 -261 -349
-370 -244 -346 -364 -720 -364 -1137 0 -196 18 -331 67 -511 l32 -119 413 -3
412 -2 0 80 c0 78 1 80 50 159 l51 79 -3 84 -3 83 -38 -58 c-21 -32 -42 -55
-47 -52 -6 4 -10 96 -10 222 0 241 5 263 68 311 l35 27 534 3 534 3 80 121 79
122 -71 73 c-62 61 -71 74 -59 87 8 10 29 16 57 16 42 0 45 2 39 23 -48 163
-19 292 92 409 59 62 121 94 210 109 68 11 85 6 100 -25 15 -33 -8 -63 -56
-72 -120 -20 -192 -68 -236 -155 -43 -87 -47 -84 116 -81 79 1 149 -2 157 -7
17 -11 18 -58 2 -74 -8 -8 -58 -13 -134 -16 -67 -1 -128 -8 -134 -13 -17 -14
-16 -58 1 -80 10 -14 28 -18 77 -18 61 0 71 -4 214 -80 83 -45 156 -88 163
-97 15 -20 16 -67 2 -93 -14 -26 -70 -40 -165 -40 l-81 0 -89 -217 c-49 -120
-94 -221 -99 -225 -6 -4 -59 -8 -117 -8 -141 0 -145 -3 -118 -95 19 -64 37
-92 77 -114 13 -7 10 -15 -16 -47 l-32 -39 0 -152 0 -153 50 0 c57 0 48 -19
90 183 l27 129 -23 27 c-12 14 -47 44 -77 66 -49 36 -57 46 -71 99 -9 32 -15
60 -13 63 3 2 65 7 138 11 l134 7 6 38 c3 20 8 40 11 42 3 3 31 -54 61 -127
31 -73 94 -223 141 -333 l84 -200 533 0 534 0 27 92 c156 530 66 1132 -238
1596 -85 129 -134 190 -247 305 -242 246 -520 412 -852 507 -211 61 -523 88
-734 64z m-582 -765 c41 -12 67 -29 115 -77 60 -61 129 -164 120 -179 -9 -15
-41 -8 -60 13 -30 33 -73 51 -108 45 -28 -5 -33 -2 -49 33 -10 21 -35 67 -57
100 -57 89 -55 93 39 65z m587 -69 c7 -19 14 -60 14 -91 0 -83 -32 -133 -110
-172 -58 -29 -90 -53 -90 -68 0 -3 50 -3 110 1 80 5 110 4 110 -5 0 -40 -78
-124 -126 -136 -55 -14 -249 17 -206 33 22 8 2 23 -31 23 -73 1 -167 74 -185
145 -7 26 -48 64 -85 78 -18 7 22 34 67 46 45 11 64 4 112 -40 27 -27 33 -28
62 -18 18 6 32 16 33 22 1 7 2 23 2 37 2 19 10 26 45 36 54 16 217 102 239
126 21 24 22 24 39 -17z"/>
<path d="M2940 2802 l-185 -3 -42 -64 c-24 -36 -43 -69 -43 -74 0 -5 18 -40
39 -77 41 -70 43 -84 13 -84 -27 -1 -109 -42 -94 -47 8 -3 32 2 55 10 23 9 68
21 100 28 79 17 85 26 64 107 -18 69 -22 114 -11 125 4 3 22 0 41 -8 50 -21
81 -19 119 10 18 14 38 25 44 25 15 0 27 -35 35 -104 6 -47 4 -60 -10 -76 -17
-19 -23 -88 -10 -110 3 -5 31 -10 61 -10 l54 0 0 174 c0 149 -2 175 -16 180
-9 3 -19 5 -22 4 -4 -2 -90 -4 -192 -6z"/>
<path d="M2413 2658 c-52 -70 -53 -74 -53 -140 l0 -68 91 0 91 0 -31 55 c-28
49 -31 63 -31 140 0 47 -3 85 -7 85 -5 -1 -32 -33 -60 -72z"/>
<path d="M1030 2060 c0 -100 2 -120 15 -120 12 0 15 18 15 105 l0 105 65 0 65
0 0 -105 c0 -88 3 -105 15 -105 13 0 15 17 13 118 l-3 117 -92 3 -93 3 0 -121z"/>
<path d="M1345 2171 c-77 -32 -94 -159 -28 -210 40 -33 88 -28 129 13 29 29
34 41 34 80 0 61 -21 101 -61 115 -37 13 -46 13 -74 2z m84 -47 c25 -31 27
-83 6 -123 -25 -49 -89 -49 -115 -1 -21 40 -8 121 24 142 24 17 65 8 85 -18z"/>
<path d="M1500 2165 c0 -10 11 -15 35 -15 l35 0 0 -105 c0 -93 2 -105 18 -105
15 0 17 10 14 105 l-3 105 40 0 c30 0 41 4 41 15 0 12 -17 15 -90 15 -73 0
-90 -3 -90 -15z"/>
<path d="M1728 2173 c-2 -5 -2 -59 0 -120 l3 -113 55 0 c64 0 73 17 12 22
l-43 3 1 40 c1 34 4 40 25 43 48 6 54 16 14 21 -38 6 -40 8 -40 41 0 33 2 35
39 40 63 8 58 30 -8 30 -30 0 -56 -3 -58 -7z"/>
<path d="M1910 2177 c-3 -3 -4 -57 -2 -121 2 -86 7 -116 16 -116 8 0 12 14 12
42 -1 39 1 42 34 50 65 16 93 84 50 123 -18 16 -99 33 -110 22z m88 -39 c20
-20 14 -56 -13 -74 -13 -9 -30 -14 -36 -12 -11 4 -20 73 -11 91 5 11 47 8 60
-5z"/>
<path d="M2133 2170 c-44 -18 -56 -77 -23 -110 25 -25 25 -24 -5 -68 -29 -43
-31 -52 -10 -52 9 0 28 20 43 45 15 26 34 45 44 45 15 0 18 -9 18 -45 0 -33 4
-45 15 -45 13 0 15 20 15 120 l0 120 -37 -1 c-21 0 -48 -4 -60 -9z m67 -65 c0
-43 -1 -45 -28 -45 -33 0 -52 16 -52 45 0 29 19 45 52 45 27 0 28 -2 28 -45z"/>
<path d="M2310 2060 c0 -100 3 -120 15 -120 12 0 15 13 15 55 l0 55 65 0 65 0
0 -55 c0 -42 3 -55 15 -55 13 0 15 20 15 120 0 98 -3 120 -14 120 -11 0 -16
-15 -18 -52 l-3 -53 -60 0 -60 0 -3 53 c-2 37 -7 52 -18 52 -11 0 -14 -22 -14
-120z"/>
<path d="M2580 2060 c0 -100 3 -120 15 -120 12 0 15 13 15 55 l0 55 65 0 65 0
0 -55 c0 -42 3 -55 15 -55 13 0 15 20 15 120 0 98 -3 120 -14 120 -11 0 -16
-15 -18 -52 l-3 -53 -60 0 -60 0 -3 53 c-2 37 -7 52 -18 52 -11 0 -14 -22 -14
-120z"/>
<path d="M2850 2060 l0 -120 41 0 c65 0 99 24 99 71 0 38 -22 61 -66 68 -38 6
-39 7 -42 54 -2 33 -7 47 -18 47 -11 0 -14 -22 -14 -120z m98 -12 c22 -22 15
-67 -12 -80 -40 -18 -56 -5 -56 47 0 43 1 45 28 45 15 0 33 -5 40 -12z"/>
<path d="M3030 2060 c0 -100 3 -120 15 -120 13 0 15 20 15 120 0 100 -2 120
-15 120 -12 0 -15 -20 -15 -120z"/>
<path d="M3149 2176 c-2 -2 -3 -56 -1 -120 l3 -116 55 0 c64 0 73 17 12 22
-43 3 -43 3 -43 43 0 35 3 40 25 43 49 6 56 16 15 21 -38 6 -40 8 -40 41 0 33
2 35 39 40 63 8 58 30 -6 30 -30 0 -57 -2 -59 -4z"/>
<path d="M3395 2170 c-4 -6 4 -19 18 -30 13 -11 30 -33 37 -50 11 -28 10 -35
-23 -90 -32 -52 -34 -60 -18 -60 13 0 30 19 50 55 17 30 36 55 41 55 6 0 10
-25 10 -55 0 -46 3 -55 18 -55 14 0 17 9 17 52 0 30 5 53 11 55 7 2 26 -21 44
-52 17 -30 38 -55 46 -55 20 0 18 6 -16 62 -16 26 -30 56 -30 64 0 21 38 84
51 84 5 0 9 7 9 15 0 33 -45 4 -70 -45 -29 -57 -50 -53 -50 10 0 38 -4 50 -15
50 -11 0 -15 -12 -15 -50 0 -57 -12 -64 -35 -19 -29 55 -66 82 -80 59z"/>
<path d="M3720 2061 c0 -95 3 -121 13 -121 8 0 40 38 72 85 32 47 62 85 67 85
4 0 8 -38 8 -85 0 -70 3 -85 15 -85 13 0 15 17 13 117 -2 78 -7 118 -15 120
-6 2 -40 -37 -75 -87 l-63 -92 -5 88 c-3 57 -9 89 -17 92 -10 3 -13 -25 -13
-117z"/>
<path d="M3998 2174 c-5 -4 -8 -58 -8 -121 l0 -113 45 0 c35 0 52 6 70 25 30
29 31 54 5 88 -13 16 -16 28 -10 32 15 9 12 61 -5 75 -17 14 -87 25 -97 14z
m82 -43 c15 -29 2 -51 -31 -51 -26 0 -29 3 -29 35 0 31 3 35 25 35 14 0 29 -8
35 -19z m8 -93 c28 -28 -5 -78 -50 -78 -15 0 -18 9 -18 45 0 43 1 45 28 45 15
0 33 -5 40 -12z"/>
<path d="M4233 2166 c-38 -17 -63 -61 -63 -111 0 -127 150 -159 195 -42 39
102 -40 193 -132 153z m87 -38 c22 -24 28 -95 10 -128 -26 -49 -95 -45 -119 6
-42 93 45 191 109 122z"/>
<path d="M4397 2173 c-15 -14 -5 -22 31 -25 l37 -3 3 -102 c2 -73 6 -103 15
-103 9 0 12 29 12 102 l0 103 38 3 c24 2 37 8 37 18 0 11 -17 14 -83 14 -46 0
-87 -3 -90 -7z"/>
<path d="M4618 2173 c-2 -5 -2 -59 0 -120 2 -86 6 -113 16 -113 10 0 13 15 12
53 l-1 52 65 0 65 0 3 -52 c2 -33 8 -53 15 -53 9 0 11 29 10 107 -1 60 -3 114
-3 121 0 8 -6 12 -12 9 -9 -2 -12 -19 -10 -49 3 -43 2 -45 -25 -50 -15 -2 -46
-4 -68 -4 l-40 1 -3 53 c-3 45 -14 67 -24 45z"/>
<path d="M4889 2176 c-2 -2 -3 -56 -1 -120 l3 -116 45 0 c49 0 94 32 94 68 0
35 -38 72 -75 72 -33 0 -34 1 -37 47 -3 41 -15 62 -29 49z m93 -133 c10 -9 18
-22 18 -30 0 -20 -37 -53 -60 -53 -17 0 -20 7 -20 50 0 45 2 50 22 50 12 0 30
-7 40 -17z"/>
<path d="M5070 2061 c0 -102 2 -121 15 -121 13 0 15 17 13 117 -2 82 -7 118
-15 121 -10 3 -13 -25 -13 -117z"/>
<path d="M5180 2060 l0 -120 55 0 c30 0 55 5 55 10 0 6 -18 10 -40 10 l-40 0
0 45 c0 45 0 45 35 45 19 0 35 5 35 10 0 6 -16 10 -35 10 -34 0 -35 1 -35 39
0 39 1 40 37 43 62 5 53 28 -11 28 l-56 0 0 -120z"/>
<path d="M1840 1666 c0 -2 42 -38 93 -79 365 -296 774 -441 1237 -440 376 0
706 94 1023 290 85 53 277 199 292 222 4 8 -375 11 -1319 11 -729 0 -1326 -2
-1326 -4z"/>
</g>
</svg>
